<svg xmlns="http://www.w3.org/2000/svg" version="1" viewBox="0 0 24 24" enable-background="new 0 0 24 24" width="48" height="48">
    <path style="text-indent:0;text-align:start;line-height:normal;text-transform:none;block-progression:tb;-inkscape-font-specification:Bitstream Vera Sans" d="M 10 3 C 9.4777778 3 8.9395305 3.1854695 8.5625 3.5625 C 8.1854695 3.9395305 8 4.4777778 8 5 L 8 6 L 4 6 C 2.9 6 2 6.9 2 8 L 2 14 C 2 15.1 2.9 16 4 16 L 20 16 C 21.1 16 22 15.1 22 14 L 22 8 C 22 6.9 21.1 6 20 6 L 16 6 L 16 5 C 16 4.4777778 15.814531 3.9395305 15.4375 3.5625 C 15.060469 3.1854695 14.522222 3 14 3 L 10 3 z M 10 5 L 14 5 L 14 6 L 10 6 L 10 5 z M 12 12 C 12.6 12 13 12.4 13 13 C 13 13.6 12.6 14 12 14 C 11.4 14 11 13.6 11 13 C 11 12.4 11.4 12 12 12 z M 2 15 L 2 19 C 2 20.1 2.9 21 4 21 L 20 21 C 21.1 21 22 20.1 22 19 L 22 15 C 22 16.1 21.1 17 20 17 L 4 17 C 2.9 17 2 16.1 2 15 z" color="#000" overflow="visible" enable-background="accumulate" font-family="Bitstream Vera Sans"/>
</svg>