<?xml version="1.0" encoding="UTF-8"?>
<svg xmlns="http://www.w3.org/2000/svg" xmlns:xlink="http://www.w3.org/1999/xlink" viewBox="0 0 24 24" version="1.1" width="40px" height="40px">
<g id="surface1">
<path style=" " d="M 4 2 C 2.898438 2 2 2.898438 2 4 L 2 20 C 2 21.101563 2.898438 22 4 22 L 20 22 C 21.101563 22 22 21.101563 22 20 L 22 4 C 22 2.898438 21.101563 2 20 2 Z M 13 4 L 20 4 L 20 11 L 13 11 Z M 5.90625 13 L 9.09375 13 C 9.039063 13.15625 9 13.328125 9 13.5 C 9 14.328125 9.671875 15 10.5 15 C 10.671875 15 10.84375 14.960938 11 14.90625 L 11 18.09375 C 10.84375 18.039063 10.671875 18 10.5 18 C 9.671875 18 9 18.671875 9 19.5 C 9 19.671875 9.039063 19.84375 9.09375 20 L 5.90625 20 C 5.960938 19.84375 6 19.671875 6 19.5 C 6 18.671875 5.328125 18 4.5 18 C 4.328125 18 4.15625 18.039063 4 18.09375 L 4 14.90625 C 4.15625 14.960938 4.328125 15 4.5 15 C 5.328125 15 6 14.328125 6 13.5 C 6 13.328125 5.960938 13.15625 5.90625 13 Z M 13 13 L 13.59375 13 L 13 13.59375 Z M 16.40625 13 L 18.59375 13 L 13 18.59375 L 13 16.40625 Z M 20 14.40625 L 20 16.59375 L 16.59375 20 L 14.40625 20 Z M 7.5 15 C 6.671875 15 6 15.671875 6 16.5 C 6 17.328125 6.671875 18 7.5 18 C 8.328125 18 9 17.328125 9 16.5 C 9 15.671875 8.328125 15 7.5 15 Z M 20 19.40625 L 20 20 L 19.40625 20 Z "/>
</g>
</svg>
