<svg xmlns="http://www.w3.org/2000/svg" version="1" viewBox="0 0 24 24" enable-background="new 0 0 24 24" width="48" height="48">
    <path d="M 7.5 5 C 5.6 5 4 6.6 4 8.5 C 4 10.4 5.6 12 7.5 12 C 9.4 12 11 10.4 11 8.5 C 11 6.6 9.4 5 7.5 5 z M 16.5 5 C 14.567003 5 13 6.5670034 13 8.5 C 13 10.432997 14.567003 12 16.5 12 C 18.432997 12 20 10.432997 20 8.5 C 20 6.5670034 18.432997 5 16.5 5 z M 7.5 14 C 2.6 14 1 18 1 18 L 1 20 L 14 20 L 14 18 C 14 18 12.4 14 7.5 14 z M 16.5 14 C 15 14 13.80625 14.40625 12.90625 14.90625 C 14.30625 16.10625 14.9 17.49375 15 17.59375 L 15.09375 17.8125 L 15.09375 20 L 23.09375 20 L 23.09375 18 C 22.99375 18 21.4 14 16.5 14 z"/>
</svg>