<svg xmlns:dc="http://purl.org/dc/elements/1.1/" xmlns:cc="http://creativecommons.org/ns#" xmlns:rdf="http://www.w3.org/1999/02/22-rdf-syntax-ns#" xmlns:svg="http://www.w3.org/2000/svg" xmlns="http://www.w3.org/2000/svg" xml:space="preserve" version="1.1"
	width="3783.38" height="1005.71" viewBox="0 0 3783.38 1005.71"
	>
	<g transform="matrix(1,0,0,-1,0,6260)">
		<!-- avorium -->
		<path style="fill:#231f20;fill-opacity:1;fill-rule:evenodd;stroke:none" d="m 921.094,5991.17 10.586,-0.04 c 11.754,21.03 28.601,37.23 50.547,48.61 21.943,11.39 46.053,17.1 72.343,17.16 38.54,-1.16 66.08,-13.53 82.64,-37.12 16.55,-23.6 24.57,-52.21 24.05,-85.85 0.78,-12.38 -1.42,-22.22 -6.58,-29.53 -5.16,-7.32 -18.16,-13.74 -39,-19.27 -20.85,-5.54 -54.41,-11.81 -100.67,-18.86 -42.783,-6.5 -76.264,-20.59 -100.455,-42.25 -24.196,-21.66 -36.567,-51.88 -37.114,-90.64 1.192,-37.36 14.5,-66.58 39.926,-87.67 25.43,-21.1 55.106,-31.87 89.023,-32.34 32.41,-0.07 60.34,5.83 83.79,17.68 23.44,11.86 46.55,29.44 69.3,52.74 1.83,-16.99 8.22,-31.18 19.17,-42.58 10.96,-11.39 26.84,-17.35 47.66,-17.85 12.82,0.16 24.66,1.65 35.54,4.48 10.87,2.84 19.8,5.79 26.79,8.88 l 0.07,21.34 c -3.48,-1.86 -7.01,-2.98 -10.59,-3.38 -3.6,-0.39 -6.88,-0.54 -9.86,-0.45 -18.19,1.06 -29.24,9.08 -33.13,24.08 -3.91,14.99 -5.44,31.02 -4.59,48.07 0.29,40.66 1.07,79.55 2.32,116.68 1.26,37.12 2.03,73.82 2.31,110.1 -0.58,43.89 -15.05,78.74 -43.4,104.57 -28.36,25.82 -66.26,39.1 -113.7,39.84 -25.45,0.47 -50.73,-3.37 -75.84,-11.52 -25.113,-8.16 -52.097,-22.91 -80.968,-44.28 l -0.168,-50.6 z M 3112.91,5798.19 c -0.06,-29.66 -0.71,-60.35 -2,-92.06 -1.28,-31.72 -3.39,-61.68 -6.37,-89.86 14.59,2.98 29.17,4.52 43.74,4.6 14.57,-0.17 29.14,-1.81 43.71,-4.89 -2.78,28.2 -4.7,58.17 -5.78,89.9 -1.07,31.72 -1.55,62.42 -1.4,92.07 l 0.27,82.71 c 0.11,50.91 10.55,90.13 31.29,117.63 20.73,27.5 52.02,41.35 93.85,41.53 16.58,-0.39 32.34,-4.87 47.3,-13.41 14.97,-8.54 26.08,-19.08 33.37,-31.61 5.4,-9.23 9.33,-18.49 11.81,-27.75 2.48,-9.26 4.01,-23.55 4.61,-42.87 0.61,-19.3 0.8,-48.65 0.58,-88.03 -0.11,-35.72 -0.96,-72.29 -2.54,-109.7 -1.57,-37.41 -3.89,-74.46 -6.94,-111.14 14.76,2.99 29.01,4.53 42.78,4.6 13.76,-0.16 28.01,-1.79 42.74,-4.88 -1.38,29.32 -2.48,55.59 -3.28,78.82 -0.79,23.24 -1.15,48.53 -1.08,75.9 0.1,60.42 0.75,104.99 1.94,133.69 1.2,28.71 3.51,48.76 6.91,60.16 3.42,11.41 8.49,21.35 15.24,29.86 8.85,12.52 21.46,23.14 37.83,31.86 16.38,8.73 36.28,13.25 59.68,13.55 37.92,-0.91 64.53,-12.31 79.87,-34.19 15.32,-21.88 22.64,-49.51 22,-82.9 -0.46,-86.76 -1.82,-155.26 -4.08,-205.53 -2.28,-50.26 -4.5,-84.23 -6.67,-101.9 13.79,2.99 28.05,4.53 42.78,4.61 7.27,-0.05 14.34,-0.5 21.26,-1.36 6.89,-0.85 13.73,-2.03 20.51,-3.52 -1.33,20.1 -2.13,38.52 -2.38,55.22 -0.25,16.7 -0.31,33.65 -0.19,50.84 0.42,56.4 1.53,100.99 3.35,133.78 1.81,32.79 2.87,59.87 3.18,81.23 -0.73,54.5 -14.82,93.89 -42.26,118.17 -27.45,24.28 -62.79,36.25 -106.04,35.93 -34.82,-0.01 -65.72,-8.16 -92.71,-24.46 -26.96,-16.31 -48.41,-40.05 -64.35,-71.24 -9.54,28.3 -26.4,51.31 -52.51,69.06 -26.11,17.76 -56.16,26.96 -90.16,27.62 -31.11,0.16 -58.72,-6.91 -82.82,-21.22 -24.1,-14.31 -44.95,-36.24 -62.53,-65.77 -1.9,13.06 -1.62,26 -1.09,38.83 0.54,12.84 1.3,25.8 2.31,38.89 -7.39,-1.45 -14.48,-2.57 -21.27,-3.4 -6.77,-0.81 -12.63,-1.21 -17.6,-1.22 -14.56,0.18 -29.15,1.8 -43.73,4.89 2.8,-28.19 4.72,-58.15 5.81,-89.88 1.06,-31.71 1.53,-62.39 1.39,-92.04 l -0.33,-101.12 z m -467.77,-30.71 c 0.28,-50.92 14.58,-90.18 42.88,-117.81 28.3,-27.62 67.99,-41.68 119.03,-42.17 31.1,0.02 59.97,7.94 86.62,23.76 26.64,15.81 48.5,38.83 65.58,69.03 1.93,-13.59 1.8,-27.38 1.55,-41.38 -0.24,-13.99 -0.85,-28.05 -1.83,-42.17 12.64,2.99 25.28,4.54 37.91,4.62 12.62,-0.16 25.24,-1.79 37.88,-4.86 -1.35,27.3 -2.27,55.14 -2.78,83.54 -0.49,28.39 -0.69,56.96 -0.56,85.72 0.07,51.11 0.64,100.64 1.69,148.58 1.05,47.94 3.08,96.98 6.08,147.11 -6.28,-1.46 -12.7,-2.58 -19.21,-3.4 -6.52,-0.82 -13.4,-1.22 -20.65,-1.22 -7.22,0.05 -14.15,0.49 -20.76,1.35 -6.62,0.86 -13.3,2.03 -20.03,3.53 0.85,-23.8 1.34,-49.65 1.46,-77.58 0.11,-27.93 0.1,-55.24 -0.04,-81.95 -0.05,-49.83 -0.5,-86.86 -1.33,-111.09 -0.84,-24.23 -2.74,-42.3 -5.7,-54.2 -2.95,-11.89 -7.65,-24.25 -14.07,-37.07 -8.4,-17.89 -21.7,-32.61 -39.93,-44.14 -18.25,-11.54 -41.02,-17.47 -68.34,-17.78 -18.94,0.28 -35.33,3.78 -49.13,10.5 -13.81,6.71 -25.31,15.31 -34.49,25.77 -8.45,8.83 -15.52,22.39 -21.16,40.69 -5.63,18.31 -8.52,44.02 -8.62,77.14 0.19,48.25 1.24,95.76 3.13,142.54 1.9,46.77 4.38,89.42 7.48,127.92 -13.79,-2.99 -27.08,-4.53 -39.87,-4.61 -6.38,0.04 -13.05,0.49 -20.04,1.34 -6.97,0.86 -13.89,2.04 -20.74,3.54 l 1.07,-80.65 c 0.29,-26.33 0.41,-51.01 0.36,-74.06 -0.2,-23.3 -0.75,-47.5 -1.69,-72.61 -0.93,-25.12 -1.52,-54.42 -1.75,-87.93 z M 2475.1,6207.2 c 0.32,-13.97 5.15,-25.65 14.47,-35.02 9.32,-9.39 20.96,-14.29 34.94,-14.7 13.97,0.32 25.64,5.14 35.04,14.47 9.38,9.32 14.28,20.96 14.69,34.93 -0.32,13.98 -5.14,25.64 -14.46,35.03 -9.34,9.38 -20.98,14.28 -34.95,14.69 -13.98,-0.31 -25.66,-5.14 -35.03,-14.46 -9.38,-9.33 -14.29,-20.97 -14.7,-34.94 z m 12.3,-407.02 c -0.06,-29.65 -0.73,-60.32 -2,-92.04 -1.28,-31.71 -3.4,-61.66 -6.38,-89.84 14.58,2.99 29.18,4.53 43.75,4.61 14.57,-0.18 29.14,-1.81 43.7,-4.89 -2.78,28.19 -4.71,58.15 -5.77,89.87 -1.08,31.72 -1.55,62.41 -1.41,92.06 l 0.33,101.16 c 0.06,29.64 0.73,60.33 2,92.03 1.28,31.72 3.4,61.66 6.37,89.84 -14.58,-2.99 -29.17,-4.52 -43.74,-4.6 -14.57,0.17 -29.14,1.81 -43.71,4.89 2.79,-28.2 4.72,-58.16 5.78,-89.88 1.08,-31.71 1.55,-62.4 1.41,-92.05 l -0.33,-101.16 z m -67.05,208.39 c -0.09,13.8 0.23,28.26 1,43.4 0.75,15.14 2.78,26.92 6.07,35.37 -6.04,2.38 -11.32,3.98 -15.82,4.79 -4.5,0.8 -9.57,1.18 -15.19,1.15 -22.64,0.07 -45.07,-8.62 -67.29,-26.05 -22.21,-17.44 -42.75,-43.64 -61.61,-78.6 -2.01,12.64 -1.76,25.56 -1.21,39.76 0.56,14.21 2.03,32.73 4.44,55.56 -6.36,-1.45 -12.84,-2.58 -19.45,-3.4 -6.6,-0.81 -13.08,-1.22 -19.43,-1.22 -6.74,0.05 -13.42,0.49 -20.03,1.35 -6.62,0.86 -13.54,2.03 -20.77,3.53 1.73,-41.83 2.75,-79.53 3.05,-113.1 0.29,-33.55 0.36,-62.97 0.19,-88.27 l -0.1,-31.13 c -0.09,-54.37 -0.41,-100.77 -0.94,-139.21 -0.53,-38.45 -1.77,-69.53 -3.71,-93.25 7.24,1.45 14.16,2.58 20.78,3.39 6.62,0.81 13.31,1.22 20.05,1.22 6.35,-0.05 12.82,-0.5 19.41,-1.35 6.61,-0.85 13.08,-2.03 19.44,-3.53 -1.23,14.24 -2.09,31.29 -2.57,51.14 -0.49,19.85 -0.75,46.61 -0.76,80.3 l 0.3,134.14 c 0.37,38.87 9.23,70.89 26.6,96.05 17.38,25.17 41.76,38.15 73.18,38.94 10.08,-0.19 19.61,-1.85 28.6,-4.96 8.96,-3.11 15.33,-6.7 19.06,-10.77 l 6.71,4.75 z m -667.83,-155.41 c -0.14,36.92 4.5,71.31 13.94,103.15 9.42,31.85 25.21,57.62 47.37,77.32 22.15,19.69 52.24,29.77 90.28,30.23 38.01,-0.71 68.04,-10.99 90.07,-30.82 22.03,-19.84 37.65,-45.72 46.86,-77.63 9.24,-31.9 13.65,-66.32 13.28,-103.23 0.13,-36.93 -4.51,-71.32 -13.94,-103.16 -9.43,-31.85 -25.22,-57.62 -47.38,-77.32 -22.15,-19.69 -52.25,-29.77 -90.27,-30.24 -38.03,0.72 -68.06,10.99 -90.08,30.83 -22.02,19.84 -37.65,45.71 -46.87,77.62 -9.22,31.9 -13.64,66.32 -13.26,103.25 z m -85.51,0.27 c 0.64,-58.75 12.55,-105.97 35.74,-141.63 23.18,-35.67 52.67,-61.53 88.47,-77.56 35.8,-16.02 72.94,-23.95 111.41,-23.79 38.46,-0.41 75.65,7.28 111.56,23.07 35.9,15.79 65.56,41.45 88.97,76.97 23.43,35.51 35.64,82.65 36.66,141.4 -0.64,58.76 -12.54,105.98 -35.74,141.65 -23.17,35.66 -52.67,61.51 -88.46,77.54 -35.82,16.03 -72.94,23.96 -111.42,23.8 -38.46,0.41 -75.65,-7.28 -111.55,-23.07 -35.91,-15.8 -65.57,-41.45 -88.98,-76.97 -23.42,-35.52 -35.64,-82.66 -36.66,-141.41 z M 1435.59,5621.7 c 5.31,1.46 10.5,2.59 15.57,3.41 5.07,0.82 10.26,1.23 15.56,1.24 4.91,-0.04 9.94,-0.49 15.08,-1.34 5.15,-0.85 10.18,-2.02 15.07,-3.51 28.34,77.23 59.49,154.49 93.42,231.82 33.94,77.32 68.48,154.82 103.64,232.51 -4.85,-1.46 -9.76,-2.59 -14.73,-3.42 -4.96,-0.82 -10.11,-1.22 -15.45,-1.23 -4.9,0.04 -9.92,0.48 -15.07,1.34 -5.14,0.85 -10.16,2.02 -15.07,3.51 -23.13,-64.45 -47.3,-130.17 -72.51,-197.16 -25.21,-67 -51.07,-127.6 -77.57,-181.82 -28.03,63.76 -54.04,127.21 -78.06,190.35 -24.01,63.14 -45.9,126.33 -65.66,189.58 -7.26,-1.45 -14.39,-2.58 -21.41,-3.39 -7.01,-0.82 -14.15,-1.21 -21.41,-1.21 -8.22,0.04 -16.33,0.5 -24.31,1.35 -7.99,0.87 -16.09,2.05 -24.32,3.55 34.98,-77.91 67.65,-155.64 97.99,-233.17 30.35,-77.53 60.11,-155 89.24,-232.41 z m -278.9,100.05 c -11.54,-18.55 -27.34,-34.36 -47.38,-47.41 -20.05,-13.06 -42.63,-19.84 -67.74,-20.34 -22.27,0.09 -41.722,7.9 -58.351,23.42 -16.621,15.53 -25.309,38.63 -26.063,69.32 1.383,34.49 14.078,59.02 38.071,73.6 23.993,14.58 51.723,24.5 83.143,29.76 31.44,5.26 59,11.14 82.68,17.65 l -4.36,-146"/>
		<!-- Logo -->
		<g transform="rotate(0.19) translate(18, 0)">
			<path style="fill:#24477c;fill-opacity:1;fill-rule:evenodd;stroke:none" d="m 315.785,5722.12 4.961,-15.33 -0.801,9.32 -1.175,9.43 -2.985,-3.42 z m 46.594,0.28 c -4.977,1.14 -9.242,0.5 -13.719,0.51 -8.422,0.03 -16.07,2.4 -21.742,6.25 0.559,-8.72 1.145,-20.05 1.426,-32.75 0.648,-29.36 3.453,-36.14 5.703,-35.39 2.293,0.76 3.055,9.02 13.883,36.08 3.707,9.28 9.05,17.93 14.449,25.3 z M 680.434,6204.45 677.336,5250.86 0,5253.07 3.10156,6206.64 680.434,6204.45 Z m -12.875,-12.79 -1.805,-555.81 -324.777,1.06 c -1.129,-29.19 0.285,-81.16 3.234,-93.34 1.695,-6.95 3.605,-19.43 11.566,-26.78 9.473,-8.74 25.309,-11.87 29.481,-12.81 7.695,-1.75 56.422,-21.5 64.504,-24.09 8.054,-2.58 11.504,-5.79 24.281,-6.25 12.77,-0.46 52.152,-9.11 62.805,-11.7 10.629,-2.6 18.793,-8.67 18.793,-8.67 0,0 -19.161,5.9 -31.516,6.78 -12.348,0.91 -46.027,7.68 -52.781,5.19 -3.379,-1.26 0.554,-11.9 0.554,-11.9 0,0 -4.496,0.43 -7.992,8.24 -3.496,7.82 -20.156,10.74 -22.312,12 -8.063,4.73 -36.516,13.4 -55.93,12.6 -4.516,-0.18 -7.094,-3.25 -7.094,-3.25 0,0 14.489,-8.5 25.571,-15.89 12.589,-8.4 23.418,-18.08 28.457,-21.39 12.379,-8.12 62.16,-12.09 74.992,-12.13 12.805,-0.04 33.187,-5.75 43.441,-9.2 10.242,-3.45 18.68,-13.87 18.68,-13.87 0,0 -16.395,7.33 -30.867,10.79 -14.481,3.46 -21.278,4.93 -23.418,0.5 -2.156,-4.43 17.418,-17.1 27.609,-24.83 10.188,-7.72 12.246,-34.55 12.246,-34.55 0,0 -8.203,19.58 -17.957,29.41 -9.75,9.82 -27.816,16.84 -38.863,23.67 -11.043,6.83 -27.121,15.47 -36.203,10.08 -14.02,-8.35 31.254,-52.32 38.058,-60.83 6.809,-8.53 8.653,-22.5 8.653,-22.5 0,0 -7.309,13.17 -17.914,22.55 -10.633,9.41 -30.489,29.49 -41.114,43.16 -3.199,4.1 -4.906,14.35 -13.203,20.84 -19.367,15.18 -45.461,29.99 -51.992,35.4 -9.336,7.72 -21.176,15.44 -26.226,11.58 -9.625,-7.35 15.875,-28.49 23.113,-36.21 3.328,-3.55 10.801,-31.93 17.98,-37.56 8.43,-6.6 21.293,-3.35 24.27,-7.96 5.48,-8.57 4.668,-11.85 19.957,-31.04 15.281,-19.2 7.484,-49.69 7.484,-49.69 0,0 -1.125,18.78 -7.965,34.35 -6.379,14.51 -18.359,25.75 -21.656,29.47 -6.808,7.72 -17.015,11.99 -24.887,7.74 -7.898,-4.24 1.211,-19.15 2.856,-37.92 1.641,-18.77 26.016,-58.27 26.016,-58.27 0,0 -21.262,20.94 -28.227,33.37 -6.973,12.4 -4.106,38.87 -10.039,41.45 -2.039,0.89 -8.004,0.84 -11.57,-2 -6.805,-5.41 -14.723,-20.29 -14.723,-20.29 0,0 0.746,15.05 8.051,23.97 4.515,5.51 12.258,9.43 14.394,14.64 5.61,13.62 -1.804,21.43 -5.191,30.37 -3.399,8.96 -24.805,29.88 -28.238,29.48 -3.411,-0.42 -15.106,-43.1 -19.649,-71.21 -4.539,-28.12 6.922,-30.9 12.402,-49.66 5.497,-18.79 28.489,-24.37 28.489,-24.37 0,0 -8.567,-1.26 -24.742,5.59 -16.184,6.84 -25.274,50.52 -33.856,52.68 -8.586,2.15 -34.137,-18.18 -45.836,-28.38 -11.683,-10.21 -15.707,-48.08 -15.707,-48.08 0,0 -0.973,21.91 -0.238,31.1 0.668,8.44 5.129,17.25 6.746,20.64 1.609,3.37 -0.281,3.97 -0.281,3.97 0,0 -10.598,-2.52 -19.121,-9.97 -11.067,-9.65 -22.969,-25.23 -22.969,-25.23 0,0 5.961,17.27 17.765,30.69 10.036,11.4 23.954,8.87 52.985,23.6 29.039,14.75 40.43,42.28 43.344,68.43 2.91,26.13 8.125,29.41 5.691,41.1 -2.441,11.66 -18.777,20.61 -25.477,19.92 -6.722,-0.68 -18.535,0.95 -22.464,-10.69 -3.926,-11.66 1.574,-8.57 2.211,-28.37 0.64,-19.8 -8.965,-36.71 -8.965,-36.71 0,0 3.257,18.7 2.945,30.38 -0.332,11.65 0.375,13.79 -4.207,13.81 -4.598,0.01 -8.125,-4.44 -15.578,-12.2 -7.445,-7.75 -9.449,-18.07 -10.567,-39.26 -1.132,-21.2 -14.605,-34.59 -14.605,-34.59 0,0 2.48,3.89 4.625,8.83 2.133,4.94 4.277,16.98 3.594,24.05 -0.684,7.07 -1.856,15.44 -1.137,21.09 0.16,1.22 0.07,5.84 1.629,9.07 1.433,2.95 1.629,6.01 1.629,6.01 l -23.938,-9.96 c -8.144,-3.51 -13.004,-3.06 -15.699,-12.91 -2.351,-8.64 -1.582,-12.25 -6.277,-21.4 -3.567,-6.96 -9.879,-13.54 -12.645,-19.79 -4.679,-10.6 -19.074,-21.22 -25.008,-26.01 2.485,2.2 5.661,5.63 7.442,9.94 2.59,6.24 15.195,23.77 20.539,35.41 2.844,6.22 2.058,14.85 3.051,19.54 0.875,4.08 2.031,7.05 2.031,7.05 0,0 -14.68,-3.88 -27.098,-14.78 -12.406,-10.91 -47.793,-39.66 -47.793,-39.66 0,0 38.289,45.36 54.016,56.08 15.726,10.72 27.676,16.4 41.633,17.42 13.972,1.01 28.675,14.1 38.285,23.78 9.594,9.67 17.508,19.98 18.18,24.95 0.277,2.11 1.566,7.24 0.027,8.9 -1.547,1.67 -64.649,-21.54 -91.969,-28.2 -5.574,-1.35 -10.723,-3.23 -15.426,-5.4 -2.168,-1.5 -3.211,-4.26 -5.492,-14.03 -1.508,-6.45 -6.293,-11.67 -13.793,-17.91 -7.972,-7.84 -10.25,-9.76 -10.25,-9.76 0,0 11.488,14.28 12.473,15.7 4.707,6.82 4,13.31 3.683,18.34 -15.972,-11.04 -24.085,-23.95 -24.085,-23.95 0,0 2.195,25.25 41.457,41.21 24.902,10.1 31.168,15.97 78.929,30.31 40.844,12.25 49.121,17.62 57.406,27.95 3.321,4.93 7.145,12.96 8.848,25 2.098,14.89 3.184,53.77 2.508,87.29 l -305.7383,1 1.8086,555.82 651.6527,-2.13 z m -475.34,-120.49 c 0.086,26.1 19.523,47.53 44.453,50.25 1.402,16.84 16.547,30.06 34.992,29.99 18.387,-0.06 33.426,-13.29 34.801,-30.04 1.855,-0.16 3.676,-0.44 5.433,-0.81 5.168,6.54 14.223,10.85 24.52,10.82 8.246,-0.03 15.687,-2.85 20.937,-7.34 -0.089,17.21 9.36,28.7 20.965,28.66 8.219,-0.03 15.325,-5.83 18.766,-14.27 5.453,4.36 12.769,7.02 20.789,6.99 16.895,-0.06 30.566,-11.99 30.52,-26.65 2.273,0.5 4.691,0.81 7.164,0.8 10.687,-0.04 19.847,-6.21 23.687,-14.98 3.137,1.31 6.555,2.02 10.141,2 15.125,-0.05 27.312,-13.06 27.258,-29.05 -0.004,-2.37 -0.29,-4.65 -0.801,-6.84 10.011,-4.86 16.847,-14.89 16.812,-26.45 -0.019,-4.39 -1,-8.53 -2.793,-12.26 22.348,-0.03 38.938,-17.11 38.867,-38.13 -0.031,-8.23 -2.617,-15.85 -6.972,-22.06 2.601,-3.73 4.156,-8.3 4.14,-13.23 -0.015,-3.59 -0.839,-6.95 -2.293,-9.96 5.36,3.41 11.747,5.39 18.575,5.37 18.996,-0.06 34.367,-15.52 34.304,-34.52 -0.015,-4.77 -0.996,-9.31 -2.769,-13.44 2.805,1.07 5.863,1.65 9.062,1.64 13.512,-0.04 24.426,-10.61 24.379,-23.62 -0.011,-5.64 -2.093,-10.81 -5.551,-14.86 0.036,-9.02 -5.058,-15.54 -12.417,-18.57 -1.583,-7.35 -5.77,-13.38 -11.305,-16.57 1.25,-3.42 1.914,-7.15 1.902,-11.03 -0.055,-16.75 -12.859,-30.3 -28.629,-30.26 -7.289,0.03 -13.933,2.95 -18.949,7.77 -2.48,-7.2 -8.074,-12.2 -14.578,-12.18 -1.324,0.01 -2.613,0.22 -3.859,0.62 -2.071,-4.07 -6.004,-7.35 -10.915,-9.1 1.61,-3.06 2.504,-6.47 2.497,-10.06 -0.047,-13.24 -12.442,-23.95 -27.692,-23.9 l -4.406,0.33 c 0.285,-10.53 -5.41,-16.6 -12.414,-16.58 -3.203,0.01 -6.106,1.3 -8.336,3.4 -1.606,-10.06 -12.5,-17.8 -25.684,-17.76 -2.91,-1.73 -5.73,-3.03 -8.84,-3.79 -1.156,-4.54 -6.101,-7.93 -12.011,-7.91 -6.754,0.02 -12.207,4.49 -12.196,10 0.004,1.47 0.399,2.86 1.106,4.11 -2.524,2.68 -4.191,5.94 -4.586,9.51 -2.895,-1.32 -6.227,-2.32 -9.82,-2.92 -3.621,-2.46 -8.426,-4.32 -13.887,-5.29 -0.004,-8.36 -3.246,-14.48 -7.91,-17.27 -2.461,-4.17 -7.543,-7.03 -13.426,-7.01 -8.242,0.02 -14.918,5.73 -14.898,12.72 0.007,2.7 0.996,5.18 2.695,7.23 -20.231,-15.67 -28.02,-45.87 -30.723,-61.03 -0.636,-3.45 -1.062,-9.36 -1.347,-16.73 l -21.141,0.06 c -0.398,19.01 -1.359,36.28 -3.016,46.49 -2.586,15.77 -7.82,26.21 -11.925,32.36 -5.11,-6.19 -11.379,-10.84 -18.786,-10.81 -1.847,-5.17 -4.742,-9.49 -8.644,-10.96 1.344,-7 -2.324,-9.84 -6.817,-9.83 -3.695,0.01 -6.804,1.95 -7.812,4.58 -6.234,0.31 -11.18,5.48 -11.156,11.79 -8.203,0.93 -14.477,8.05 -14.45,16.8 -7.734,1.37 -11.55,2.52 -14.667,4.45 -1.696,-0.22 -3.458,-0.32 -5.235,-0.31 -3.359,0.01 -6.598,0.42 -9.652,1.17 -7.246,-9.51 -18.313,-15.56 -30.703,-15.52 -21.743,0.07 -39.321,18.97 -39.246,42.23 0.007,3.04 0.316,6.02 0.906,8.87 -4.485,1.85 -8.11,5.72 -10.082,10.66 -6.656,-0.01 -11.676,2.08 -15.555,5.53 -2.953,-1.21 -6.215,-1.87 -9.613,-1.86 -1.488,0 -2.934,0.13 -4.3439,0.39 -5.7344,-3.1 -12.2657,-4.86 -19.2188,-4.84 -22.4922,0.07 -40.6953,18.78 -40.6211,41.8 0.043,14.03 6.8946,26.43 17.3203,33.94 0.0469,1.55 0.2657,3.05 0.6289,4.44 -6.3398,4.67 -10.5312,12.89 -10.4961,22.27 0.043,14.49 10.211,26.22 22.7188,26.17 1.6719,3.8 0.9297,8.34 0.9453,13.13 0.0156,4.41 0.6797,8.6 1.8477,12.38 -6.8086,2.84 -11.9649,8.48 -13.7422,15.33 -16.4688,3.84 -28.7149,18.64 -28.6563,36.26 0.0703,20.51 16.7539,37.08 37.2578,37.02 3.8946,-0.01 7.6524,-0.63 11.1641,-1.74 4.7578,13.05 16.9102,22.48 31.4845,22.43 3.141,-0.01 6.195,-0.47 9.043,-1.3 4.152,2.37 9.137,3.81 14.527,3.93 0.059,23.62 16.938,41.6 37.699,41.54 7.911,-0.03 15.274,-2.68 21.325,-7.2 l -0.047,2.61"/>
		</g>
		<!-- Software Entwicklung -->
		<path style="fill:#231f20;fill-opacity:1;fill-rule:evenodd;stroke:none" d="m 893.746,5355.03 c -0.433,-4.34 -0.957,-8.04 -1.562,-11.1 -0.614,-3.07 -1.614,-6.36 -2.973,-9.86 3.973,-3.46 9.027,-6.53 15.137,-9.23 6.117,-2.69 14.004,-4.12 23.672,-4.3 12.136,0.09 22.507,2.5 31.113,7.25 8.609,4.75 15.199,11.1 19.785,19.06 4.582,7.96 6.906,16.79 6.98,26.49 -0.339,12.67 -4.183,21.99 -11.5,27.96 -7.328,5.97 -15.82,10.65 -25.468,14.05 -9.653,3.4 -18.137,7.57 -25.473,12.54 -7.324,4.96 -11.168,12.78 -11.523,23.45 0.195,8.74 3.078,15.75 8.648,21.03 5.57,5.28 12.859,7.97 21.859,8.09 8.696,-0.41 15.161,-3.03 19.391,-7.87 4.231,-4.84 7.09,-9.63 8.582,-14.37 l 2.828,-0.01 c 0.922,4.4 1.875,8.14 2.856,11.21 0.976,3.08 2.164,5.93 3.554,8.56 -4.629,3.76 -9.75,6.56 -15.367,8.4 -5.609,1.82 -12.097,2.74 -19.461,2.76 -15.844,-0.17 -28.297,-4.28 -37.347,-12.32 -9.055,-8.05 -13.692,-18.72 -13.903,-32.02 0.344,-13.49 4.168,-23.43 11.5,-29.81 7.321,-6.4 15.809,-11.35 25.457,-14.88 9.657,-3.51 18.145,-7.72 25.469,-12.6 7.324,-4.89 11.168,-12.57 11.523,-23.07 -0.125,-9.67 -3.144,-17.7 -9.07,-24.11 -5.914,-6.41 -14.168,-9.73 -24.754,-9.94 -10.09,0.36 -18.176,3.08 -24.246,8.18 -6.062,5.09 -10.371,10.57 -12.906,16.45 l -2.801,0.01"/>
		<path style="fill:#231f20;fill-opacity:1;fill-rule:evenodd;stroke:none" d="m 1062.91,5379.45 c -0.03,8.95 1.08,17.27 3.37,24.98 2.29,7.71 6.11,13.95 11.47,18.72 5.37,4.77 12.65,7.21 21.85,7.32 9.21,-0.17 16.48,-2.66 21.82,-7.46 5.33,-4.81 9.11,-11.07 11.34,-18.79 2.24,-7.73 3.31,-16.06 3.22,-25 0.03,-8.95 -1.1,-17.27 -3.38,-24.98 -2.28,-7.71 -6.11,-13.96 -11.47,-18.72 -5.36,-4.77 -12.65,-7.2 -21.86,-7.32 -9.2,0.17 -16.47,2.66 -21.8,7.46 -5.33,4.8 -9.12,11.08 -11.35,18.8 -2.23,7.72 -3.3,16.05 -3.21,24.99 z m -20.7,0.07 c 0.15,-14.22 3.03,-25.66 8.65,-34.29 5.61,-8.64 12.75,-14.9 21.43,-18.78 8.66,-3.88 17.64,-5.8 26.96,-5.76 9.31,-0.1 18.32,1.76 27,5.59 8.71,3.82 15.88,10.03 21.55,18.63 5.67,8.6 8.63,20.02 8.88,34.24 -0.16,14.23 -3.04,25.66 -8.66,34.29 -5.6,8.64 -12.75,14.9 -21.42,18.78 -8.66,3.88 -17.65,5.8 -26.97,5.76 -9.31,0.1 -18.31,-1.76 -27,-5.58 -8.69,-3.83 -15.87,-10.04 -21.54,-18.64 -5.68,-8.6 -8.64,-20.01 -8.88,-34.24"/>
		<path style="fill:#231f20;fill-opacity:1;fill-rule:evenodd;stroke:none" d="m 1271.89,5481.95 c 0.03,3.07 0.17,6.18 0.41,9.33 0.25,3.15 0.44,6.33 0.6,9.51 -0.73,0.25 -1.52,0.42 -2.36,0.54 -0.84,0.12 -1.63,0.18 -2.36,0.18 -4.57,-0.08 -8.98,-1.16 -13.26,-3.25 -4.28,-2.08 -7.87,-4.59 -10.8,-7.51 -4.19,-4.27 -7.83,-9.67 -10.9,-16.21 -3.08,-6.52 -5.46,-13.38 -7.16,-20.56 -1.68,-7.19 -2.55,-13.91 -2.6,-20.17 -2.72,0.02 -5.52,0.07 -8.39,0.15 -2.87,0.07 -5.73,0.12 -8.57,0.14 0.26,-1.68 0.4,-3.24 0.42,-4.69 -0.03,-1.69 -0.18,-3.26 -0.45,-4.71 2.83,0.13 5.65,0.27 8.48,0.42 2.83,0.15 5.66,0.23 8.48,0.24 0,-17.17 -0.15,-34.26 -0.42,-51.27 -0.28,-17.02 -0.95,-34.16 -2.03,-51.44 3.58,0.72 7.02,1.1 10.35,1.12 1.66,-0.01 3.35,-0.12 5.06,-0.32 1.72,-0.22 3.4,-0.5 5.06,-0.87 -0.4,17.3 -0.62,34.48 -0.66,51.54 -0.05,17.06 -0.02,34.12 0.05,51.18 4.01,-0.03 8.06,-0.12 12.14,-0.3 4.07,-0.17 8.11,-0.34 12.13,-0.49 -0.26,1.46 -0.4,3.02 -0.44,4.7 0.05,1.45 0.2,3.02 0.47,4.7 -4.02,0 -8.06,-0.02 -12.13,-0.08 -4.08,-0.05 -8.13,-0.08 -12.14,-0.08 -0.72,5.03 -1.35,10.13 -1.9,15.3 -0.53,5.17 -0.82,9.27 -0.83,12.29 -0.05,6.34 1.44,11.8 4.5,16.38 3.03,4.56 8,6.94 14.89,7.13 2.36,-0.01 4.64,-0.31 6.83,-0.9 2.18,-0.6 4.21,-1.49 6.11,-2.67 l 1.42,0.67"/>
		<path style="fill:#231f20;fill-opacity:1;fill-rule:evenodd;stroke:none" d="m 1324.34,5458.22 c 0.22,-5.15 0.39,-10.05 0.52,-14.7 0.12,-4.65 0.24,-8.54 0.35,-11.69 -3.31,0.01 -8.49,0.26 -15.56,0.76 0.13,-0.82 0.23,-1.6 0.31,-2.35 0.08,-0.76 0.12,-1.54 0.12,-2.35 -0.01,-0.93 -0.05,-1.83 -0.14,-2.7 -0.08,-0.87 -0.19,-1.77 -0.32,-2.7 3.06,0.21 5.9,0.34 8.54,0.38 2.64,0.04 5.14,0.05 7.48,0.04 -0.22,-17.36 -0.58,-31.84 -1.05,-43.48 -0.47,-11.64 -0.75,-21.65 -0.83,-30.04 -0.05,-9.27 2.3,-16.48 7.07,-21.64 4.77,-5.14 12.03,-7.78 21.78,-7.89 2.99,0.02 6.08,0.37 9.25,1.03 3.17,0.67 6.14,1.48 8.91,2.44 l 0.01,5.64 c -1.62,-0.48 -3.45,-0.87 -5.48,-1.16 -2.04,-0.3 -3.74,-0.45 -5.13,-0.46 -8.93,0.41 -14.43,4.14 -16.48,11.22 -2.05,7.07 -2.88,15.22 -2.48,24.42 0.04,7.15 0.16,15.2 0.4,24.12 0.23,8.92 0.48,16.83 0.77,23.74 0.27,6.89 0.5,10.9 0.67,12 2.99,0 6.83,-0.03 11.52,-0.1 4.67,-0.06 9.16,-0.21 13.45,-0.45 -0.1,0.82 -0.16,1.64 -0.18,2.47 -0.01,0.82 -0.02,1.64 -0.01,2.46 0,0.82 0.01,1.64 0.03,2.46 0.02,0.82 0.08,1.65 0.19,2.47 -5.56,-0.22 -10.68,-0.38 -15.31,-0.47 -4.63,-0.11 -7.86,-0.16 -9.66,-0.16 0.25,5.77 0.52,11.56 0.83,17.35 0.29,5.79 0.69,11.63 1.17,17.52 l -1.18,0 -19.56,-8.18"/>
		<path style="fill:#231f20;fill-opacity:1;fill-rule:evenodd;stroke:none" d="m 1453.91,5321.9 c 1.07,0.24 2.17,0.49 3.3,0.73 1.13,0.25 2.23,0.37 3.31,0.39 1.07,-0.02 2.16,-0.15 3.28,-0.41 1.14,-0.25 2.24,-0.51 3.31,-0.76 3.01,9.69 6.44,20.06 10.3,31.1 3.86,11.04 7.66,21.56 11.41,31.53 3.75,9.97 6.97,18.19 9.66,24.67 6.17,-15.28 11.71,-30.13 16.61,-44.55 4.9,-14.42 9.32,-28.73 13.25,-42.95 0.85,0.25 1.82,0.5 2.9,0.74 1.07,0.25 2.16,0.37 3.24,0.39 1.06,-0.03 2.11,-0.16 3.15,-0.41 1.03,-0.25 2.03,-0.5 2.98,-0.76 6.77,18.7 14.12,37.42 22.02,56.14 7.9,18.73 16.31,37.49 25.21,56.29 -1.07,-0.36 -2.22,-0.63 -3.44,-0.83 -1.23,-0.2 -2.44,-0.3 -3.63,-0.29 -1.28,0 -2.54,0.11 -3.77,0.32 -1.23,0.2 -2.48,0.48 -3.76,0.85 -3.56,-10.08 -7.43,-20.76 -11.61,-32.05 -4.17,-11.29 -8.21,-22.06 -12.12,-32.31 -3.91,-10.25 -7.25,-18.83 -10.01,-25.76 -5.66,15.62 -11.04,30.89 -16.15,45.78 -5.09,14.89 -9.59,29.74 -13.48,44.55 -1.16,-0.36 -2.26,-0.64 -3.3,-0.84 -1.04,-0.2 -2.14,-0.3 -3.3,-0.3 -2.35,0.04 -4.71,0.43 -7.06,1.18 -3.02,-10.04 -6.5,-20.87 -10.42,-32.47 -3.91,-11.61 -7.76,-22.57 -11.52,-32.88 -3.75,-10.33 -6.91,-18.58 -9.45,-24.78 -6.06,15.64 -11.56,30.94 -16.51,45.88 -4.95,14.93 -9.4,29.75 -13.35,44.45 -1.78,-0.36 -3.58,-0.63 -5.41,-0.82 -1.84,-0.2 -3.64,-0.3 -5.43,-0.3 -1.87,0.01 -3.71,0.12 -5.53,0.33 -1.81,0.21 -3.66,0.49 -5.53,0.86 5.23,-12.74 10.5,-26.21 15.84,-40.39 5.34,-14.18 10.22,-27.67 14.64,-40.43 4.42,-12.77 7.88,-23.4 10.37,-31.89"/>
		<path style="fill:#231f20;fill-opacity:1;fill-rule:evenodd;stroke:none" d="m 1703.22,5345.08 c -2.79,-4.48 -6.61,-8.32 -11.46,-11.48 -4.85,-3.16 -10.32,-4.8 -16.4,-4.92 -5.4,0.02 -10.11,1.92 -14.13,5.67 -4.02,3.76 -6.13,9.36 -6.31,16.79 0.33,8.34 3.41,14.28 9.22,17.82 5.81,3.53 12.52,5.93 20.13,7.2 7.61,1.27 14.28,2.69 20.02,4.28 l -1.07,-35.36 z m -57.03,65.24 2.56,-0.01 c 2.84,5.1 6.93,9.01 12.24,11.77 5.31,2.75 11.15,4.14 17.52,4.15 9.33,-0.28 15.99,-3.27 20,-8.99 4.01,-5.71 5.95,-12.63 5.83,-20.78 0.19,-3 -0.35,-5.38 -1.6,-7.15 -1.25,-1.77 -4.4,-3.33 -9.44,-4.67 -5.05,-1.33 -13.17,-2.86 -24.37,-4.56 -10.36,-1.58 -18.47,-4.99 -24.33,-10.23 -5.85,-5.24 -8.84,-12.56 -8.97,-21.95 0.28,-9.04 3.51,-16.12 9.66,-21.23 6.16,-5.1 13.34,-7.71 21.55,-7.83 7.85,-0.01 14.62,1.42 20.28,4.29 5.68,2.86 11.27,7.12 16.79,12.77 0.44,-4.11 1.98,-7.55 4.63,-10.31 2.66,-2.76 6.5,-4.21 11.55,-4.33 3.1,0.04 5.96,0.41 8.6,1.08 2.63,0.69 4.79,1.41 6.48,2.16 l 0.02,5.16 c -0.84,-0.44 -1.69,-0.71 -2.56,-0.82 -0.87,-0.09 -1.66,-0.12 -2.39,-0.1 -4.41,0.25 -7.08,2.19 -8.02,5.83 -0.95,3.62 -1.32,7.51 -1.12,11.64 0.08,9.84 0.27,19.25 0.57,28.25 0.31,8.99 0.49,17.87 0.57,26.65 -0.15,10.63 -3.65,19.08 -10.52,25.33 -6.86,6.25 -16.04,9.46 -27.53,9.64 -6.16,0.11 -12.28,-0.82 -18.36,-2.79 -6.08,-1.97 -12.61,-5.55 -19.59,-10.72 l -0.05,-12.25"/>
		<path style="fill:#231f20;fill-opacity:1;fill-rule:evenodd;stroke:none" d="m 1854.63,5415.04 c -0.02,3.33 0.06,6.84 0.24,10.5 0.19,3.67 0.67,6.52 1.47,8.57 -1.46,0.58 -2.74,0.96 -3.83,1.15 -1.08,0.2 -2.31,0.29 -3.68,0.28 -5.48,0.02 -10.91,-2.08 -16.29,-6.3 -5.37,-4.22 -10.34,-10.57 -14.91,-19.03 l -0.47,0.24 c -0.02,2.82 0.05,5.95 0.17,9.39 0.14,3.43 0.49,7.92 1.08,13.45 -1.54,-0.36 -3.11,-0.63 -4.71,-0.83 -1.6,-0.19 -3.17,-0.3 -4.71,-0.29 -1.63,0 -3.24,0.12 -4.84,0.33 -1.6,0.2 -3.28,0.48 -5.03,0.85 0.42,-10.13 0.67,-19.26 0.74,-27.38 0.07,-8.13 0.09,-15.26 0.04,-21.37 l -0.02,-7.55 c -0.03,-13.16 -0.1,-24.4 -0.23,-33.71 -0.12,-9.3 -0.42,-16.83 -0.9,-22.57 1.76,0.35 3.44,0.62 5.03,0.83 1.61,0.19 3.22,0.29 4.85,0.29 1.54,-0.01 3.11,-0.12 4.71,-0.32 1.6,-0.22 3.16,-0.5 4.71,-0.87 -0.3,3.46 -0.52,7.58 -0.63,12.38 -0.12,4.82 -0.17,11.3 -0.18,19.45 0,8.15 0.02,18.98 0.07,32.48 0.09,9.4 2.24,17.16 6.44,23.25 4.21,6.1 10.12,9.24 17.72,9.43 2.44,-0.04 4.75,-0.45 6.92,-1.2 2.17,-0.75 3.71,-1.62 4.62,-2.61 l 1.62,1.16"/>
		<path style="fill:#231f20;fill-opacity:1;fill-rule:evenodd;stroke:none" d="m 1959.61,5427.67 c 8.08,-0.21 14.2,-2.52 18.39,-6.91 4.18,-4.4 7,-9.7 8.46,-15.94 1.46,-6.24 2.13,-12.26 2.01,-18.03 -4.98,-0.11 -10.15,-0.25 -15.51,-0.39 -5.33,-0.14 -10.62,-0.21 -15.84,-0.21 -5.01,0.03 -10.14,0.13 -15.41,0.31 -5.27,0.18 -10.35,0.34 -15.23,0.5 0.37,5.84 1.71,11.87 4,18.1 2.3,6.22 5.81,11.5 10.55,15.83 4.73,4.33 10.93,6.58 18.58,6.74 z m -54.59,-54.24 c 0.22,-16.03 5.47,-29.19 15.76,-39.48 10.31,-10.31 24.06,-15.67 41.3,-16.07 7.45,0.1 14.65,1.53 21.64,4.28 6.97,2.74 12.89,6.06 17.74,9.94 l 1.46,11.54 -1.18,0.71 c -4.31,-4.8 -9.68,-8.76 -16.1,-11.85 -6.44,-3.09 -12.87,-4.68 -19.28,-4.76 -13.15,0.32 -23.2,4.55 -30.16,12.7 -6.97,8.14 -10.45,18.49 -10.48,31.04 0,1.06 0.01,2.12 0.04,3.2 0.03,1.09 0.1,2.22 0.22,3.4 5.18,0.11 10.32,0.24 15.44,0.38 5.12,0.15 10.26,0.22 15.44,0.22 8.36,-0.04 16.74,-0.15 25.12,-0.35 8.39,-0.19 16.81,-0.36 25.28,-0.52 0.28,3.05 0.45,6.1 0.5,9.16 0.07,13.45 -3.89,24.74 -11.9,33.87 -8,9.15 -20.23,13.92 -36.7,14.34 -17.4,-0.14 -30.75,-5.64 -40.01,-16.53 -9.27,-10.88 -13.98,-25.95 -14.13,-45.22"/>
		<path style="fill:#231f20;fill-opacity:1;fill-rule:evenodd;stroke:none" d="m 2178.15,5380.83 c -0.06,-20.29 -1.07,-40.81 -2.09,-61.33 14.4,0.65 28.56,1.08 42.95,1.04 14.39,-0.05 28.54,-0.57 42.46,-1.32 -0.46,2.13 -0.69,4.72 -0.68,6.84 0.01,2.13 0.25,5.19 0.73,7.31 -14.87,-2.78 -42.72,-2.92 -63.72,-2.85 -0.21,5.89 -0.41,17.45 -0.35,35.38 0.07,22.65 0.09,28.55 0.35,34.21 11.32,-0.03 41.05,-0.61 57.32,-2.31 -0.47,2.36 -0.69,4.73 -0.68,7.08 0,2.36 0.24,4.95 0.73,7.31 -13.92,-1.13 -29.5,-2.26 -57.34,-2.17 0.02,5.9 -0.17,18.87 -0.13,31.14 0.03,11.56 0.77,19.82 1.04,29.96 30.66,-0.1 42.22,-1.79 62.04,-3.27 -0.47,2.36 -0.69,4.72 -0.69,7.08 0.01,2.37 0.25,4.72 0.74,7.08 -13.93,-0.66 -27.86,-1.1 -42.01,-1.05 -14.16,0.05 -28.07,0.57 -42.23,1.33 0.89,-20.06 1.76,-40.59 1.7,-60.88 l -0.14,-40.58"/>
		<path style="fill:#231f20;fill-opacity:1;fill-rule:evenodd;stroke:none" d="m 2405.6,5385.75 -0.05,-14.39 c -0.06,-18.16 -1.29,-35.38 -1.81,-52.6 3.29,0.69 6.36,1.15 9.66,1.14 3.31,-0.01 6.38,-0.49 9.92,-1.21 -0.44,10.15 -0.41,20.06 -0.38,30.44 0.05,16.04 1.04,30.19 1.08,43.64 0.11,32.55 -20.16,41.12 -37.6,41.18 -17,0.05 -29.05,-7.7 -37.82,-21.12 l -0.48,0 c 0.02,6.37 0.28,12.51 0.77,18.87 -3.54,-0.69 -7.08,-1.15 -9.44,-1.14 -3.54,0.01 -7.08,0.49 -10.61,1.21 1.37,-13.45 1.79,-29.97 1.75,-44.12 l -0.09,-24.54 c -0.04,-14.15 -0.57,-30.67 -2.02,-44.11 3.53,0.7 7.07,1.16 10.61,1.15 3.54,-0.02 7.08,-0.5 10.61,-1.21 -1.37,13.45 -1.78,29.96 -1.74,44.11 l 0.06,20.06 c 0.09,24.53 10.04,38.66 31.98,38.59 15.57,-0.06 25.67,-12.83 25.6,-35.95"/>
		<path style="fill:#231f20;fill-opacity:1;fill-rule:evenodd;stroke:none" d="m 2498.54,5454.57 c 0.44,-10.14 0.64,-20.29 0.86,-26.42 -3.31,0.01 -8.5,0.26 -15.58,0.76 0.24,-1.65 0.48,-3.07 0.47,-4.72 0,-1.89 -0.25,-3.54 -0.5,-5.43 6.14,0.45 11.32,0.44 16.04,0.42 -0.34,-35.15 -1.82,-56.38 -1.88,-73.6 -0.06,-18.41 9.34,-29.52 28.93,-29.58 5.89,-0.02 12.73,1.61 18.17,3.47 l 0.02,5.67 c -3.07,-0.94 -8.02,-1.63 -10.62,-1.62 -18.63,0.06 -19.05,17.99 -18.99,35.68 0.07,20.54 1.36,57.57 1.83,59.93 5.67,-0.02 16.76,-0.06 25.01,-0.56 -0.22,1.66 -0.22,3.31 -0.22,4.96 0.01,1.65 0.01,3.3 0.26,4.95 -10.85,-0.43 -21.71,-0.64 -25.01,-0.63 0.5,11.56 1.02,23.12 2.01,34.91 l -1.19,0.01 -19.61,-8.2"/>
		<path style="fill:#231f20;fill-opacity:1;fill-rule:evenodd;stroke:none" d="m 2628.33,5318.02 c 2.12,0.47 4.49,1.17 6.61,1.16 2.13,-0.01 4.48,-0.72 6.6,-1.2 8.82,28.51 23.58,68.57 31.43,87.43 12.4,-30.72 21.99,-59.06 29.92,-87.63 1.65,0.46 4.01,1.17 6.13,1.16 2.12,0 4.24,-0.73 6.14,-1.2 13.55,37.47 29.48,74.93 47.3,112.62 -2.12,-0.71 -4.72,-1.16 -7.07,-1.16 -2.61,0.01 -4.96,0.49 -7.56,1.21 -10.48,-29.7 -25.71,-69.99 -33.79,-90.25 -11.22,31.41 -21.98,60.7 -29.67,90.45 -2.35,-0.7 -4.25,-1.16 -6.61,-1.16 -2.35,0.01 -4.71,0.49 -7.07,1.21 -8.83,-29.46 -24.07,-72.35 -31.44,-90.25 -12.16,31.41 -21.97,60.93 -29.9,90.45 -3.54,-0.7 -7.32,-1.16 -10.85,-1.15 -3.77,0.02 -7.32,0.5 -11.09,1.22 15.45,-37.56 33.68,-88.11 40.92,-112.91"/>
		<path style="fill:#231f20;fill-opacity:1;fill-rule:evenodd;stroke:none" d="m 2825.35,5471.21 c -0.02,-6.61 5.38,-12.05 11.98,-12.08 6.62,-0.02 12.06,5.39 12.08,12 0.02,6.61 -5.38,12.05 -11.99,12.07 -6.61,0.02 -12.05,-5.39 -12.07,-11.99 z m 2.95,-109.72 c -0.05,-14.16 -0.57,-30.66 -2.04,-44.11 3.54,0.69 7.08,1.16 10.62,1.14 3.55,0 7.09,-0.49 10.62,-1.21 -1.37,13.45 -1.8,29.97 -1.75,44.13 l 0.08,24.53 c 0.05,14.16 0.58,30.67 2.04,44.11 -3.53,-0.69 -7.09,-1.15 -10.63,-1.14 -3.55,0.01 -7.07,0.49 -10.61,1.21 1.38,-13.45 1.79,-29.97 1.75,-44.13 l -0.08,-24.53"/>
		<path style="fill:#231f20;fill-opacity:1;fill-rule:evenodd;stroke:none" d="m 2917.52,5373.46 c -0.15,-42.22 29.77,-58.83 57.14,-58.92 14.62,-0.05 29.98,6.74 39.43,14.26 0.26,3.77 0.73,7.78 1.47,11.55 l -1.18,0.72 c -8.3,-9.41 -22.94,-16.68 -35.44,-16.64 -26.21,0.09 -40.77,16.88 -40.66,49.2 0.09,29.02 11.72,50.93 40.27,50.84 14.86,-0.05 25.68,-10.47 30.14,-18.5 l 1.9,-0.01 c 1.18,5.65 3.09,10.84 5.23,15.55 -5.89,5.45 -20.73,10.45 -37.96,10.51 -30.19,0.1 -60.21,-17.74 -60.34,-58.56"/>
		<path style="fill:#231f20;fill-opacity:1;fill-rule:evenodd;stroke:none" d="m 3078.93,5384.5 c -0.08,-21.7 -0.65,-52.14 -2.11,-67.94 3.53,0.7 7.09,1.16 10.62,1.15 3.54,-0.01 7.06,-0.5 10.61,-1.22 -1.37,13.93 -1.8,27.61 -1.75,41.54 l 0.04,14.15 c 0.01,1.88 0.95,2.83 2.37,2.82 1.18,0 2.59,-1.18 3.54,-2.37 11.04,-11.83 33.61,-38.33 47.23,-56.31 4.01,0.7 8.03,1.16 12.03,1.15 4.02,-0.01 8.02,-0.5 13.45,-1.23 -19.28,21.77 -38.79,43.77 -56.64,65.54 16.32,15.75 34.78,31.5 54.41,47.24 -5.44,-0.69 -8.49,-1.15 -11.8,-1.14 -3.29,0.01 -6.37,0.49 -8.96,1.21 -14.68,-16.71 -37.88,-39.75 -43.55,-43.98 -3.79,-2.81 -6.86,-5.4 -9.23,-5.39 -1.88,0 -2.81,1.66 -2.8,4.48 l 0.13,42.95 c 0.08,21.7 0.65,52.13 2.11,67.93 -3.55,-0.69 -7.09,-1.15 -10.62,-1.14 -3.54,0.01 -7.07,0.49 -10.62,1.22 1.38,-15.81 1.74,-46.25 1.67,-67.96 l -0.13,-42.7"/>
		<path style="fill:#231f20;fill-opacity:1;fill-rule:evenodd;stroke:none" d="m 3238.89,5383.99 c -0.08,-21.71 -0.66,-52.15 -2.12,-67.95 3.53,0.7 7.09,1.16 10.62,1.15 3.55,-0.02 7.07,-0.5 10.61,-1.21 -1.37,15.8 -1.75,46.24 -1.67,67.95 l 0.13,42.7 c 0.07,21.7 0.65,52.14 2.12,67.93 -3.54,-0.7 -7.08,-1.15 -10.61,-1.14 -3.55,0.01 -7.09,0.49 -10.62,1.21 1.36,-15.81 1.74,-46.24 1.67,-67.94 l -0.13,-42.7"/>
		<path style="fill:#231f20;fill-opacity:1;fill-rule:evenodd;stroke:none" d="m 3335.98,5352.05 c -0.08,-24.53 14.73,-38.74 39.26,-38.82 14.87,-0.05 28.81,7.93 36.89,22.53 l 0.47,0 c -0.02,-6.61 -0.04,-13.44 -0.54,-20.29 3.07,0.69 6.13,1.16 9.2,1.15 3.07,-0.01 6.13,-0.49 9.21,-1.21 -0.68,13.21 -0.86,27.13 -0.82,41.06 0.09,25.01 0.39,47.18 1.88,71.71 -3.06,-0.7 -6.13,-1.16 -9.66,-1.15 -3.55,0.01 -6.62,0.5 -9.92,1.21 0.44,-11.32 0.39,-25.94 0.35,-38.69 -0.11,-37.04 -0.36,-38.93 -5.1,-49.06 -4.06,-8.47 -13.04,-15.05 -26.25,-15.01 -9.2,0.03 -15.79,3.83 -20.27,8.8 -3.99,4.49 -7.26,12.29 -7.2,28.57 0.06,23.12 1.08,47.18 2.57,65.57 -3.32,-0.69 -6.62,-1.15 -9.68,-1.14 -3.07,0.01 -6.61,0.49 -9.91,1.21 0.19,-13.21 0.39,-26.43 0.36,-37.52 -0.05,-11.55 -0.78,-22.41 -0.84,-38.92"/>
		<path style="fill:#231f20;fill-opacity:1;fill-rule:evenodd;stroke:none" d="m 3581.89,5381.92 -0.03,-14.39 c -0.06,-18.16 -1.29,-35.39 -1.82,-52.61 3.3,0.7 6.37,1.16 9.67,1.15 3.31,-0.01 6.37,-0.49 9.92,-1.21 -0.45,10.15 -0.42,20.06 -0.38,30.44 0.05,16.03 1.03,30.19 1.07,43.64 0.11,32.55 -20.15,41.11 -37.61,41.17 -16.98,0.06 -29.04,-7.69 -37.81,-21.11 l -0.47,0 c 0.02,6.37 0.28,12.5 0.77,18.88 -3.55,-0.71 -7.09,-1.16 -9.45,-1.15 -3.53,0.01 -7.07,0.49 -10.61,1.21 1.37,-13.46 1.79,-29.97 1.74,-44.13 l -0.07,-24.53 c -0.04,-14.15 -0.57,-30.67 -2.03,-44.11 3.54,0.7 7.08,1.15 10.61,1.14 3.55,-0.01 7.08,-0.49 10.63,-1.21 -1.38,13.46 -1.79,29.97 -1.75,44.12 l 0.07,20.05 c 0.07,24.54 10.04,38.67 31.97,38.59 15.57,-0.05 25.66,-12.82 25.58,-35.94"/>
		<path style="fill:#231f20;fill-opacity:1;fill-rule:evenodd;stroke:none" d="m 3751.24,5289.37 c -0.08,-21.24 -18.97,-30.85 -38.08,-30.79 -19.6,0.06 -34.66,8.37 -34.61,29.84 0.07,20.05 14.03,27.32 37.15,27.24 25,-0.08 35.6,-7.9 35.54,-26.29 z m -12.41,102.9 c -0.06,-17.46 -8.14,-33.25 -26.07,-33.19 -18.16,0.06 -26.61,12.83 -26.55,32.17 0.07,19.12 10.02,31.58 27.01,31.53 15.33,-0.05 25.67,-11.17 25.61,-30.51 z m -71.02,-0.96 c -0.06,-17.22 8.64,-28.57 23,-34.99 l 0,-0.47 c -7.77,-1.39 -16.78,-9.15 -16.81,-19.53 -0.03,-9.2 5.14,-16.06 14.81,-18.92 l 0,-0.47 c -12.52,-3.73 -25.29,-14.07 -25.35,-31.06 -0.07,-20.99 19,-34.03 49.2,-34.13 39.63,-0.13 55.99,26 56.06,47.71 0.06,16.75 -11.45,29.53 -40.24,30.33 -8.73,0.26 -17.21,0.52 -25.95,0.79 -10.63,0.26 -13.9,3.82 -13.88,12.08 0.02,6.12 5.94,10.83 11.59,10.81 4.49,-0.01 8.74,-0.5 12.98,-0.51 26.65,-0.09 43.94,14 44.01,37.6 0.04,11.8 -6.53,24.56 -16.19,29.78 l 0.48,0.47 c 8.49,-0.26 17.21,-1.24 26.19,-1.97 -0.24,1.65 -0.47,3.3 -0.46,4.95 0,1.65 0.24,3.31 0.48,4.95 -3.07,-0.69 -9.91,-1.14 -19.11,-1.11 -3.3,0.01 -9.44,0.5 -16.51,1 -8.5,0.5 -13.21,0.98 -19.11,1 -24.54,0.09 -45.1,-12.12 -45.19,-38.31"/>
	</g>
</svg>