<?xml version="1.0" encoding="iso-8859-1"?>
<!-- Generator: Adobe Illustrator 19.1.1, SVG Export Plug-In . SVG Version: 6.00 Build 0)  -->
<svg xmlns="http://www.w3.org/2000/svg" xmlns:xlink="http://www.w3.org/1999/xlink" version="1.1" id="Layer_1" x="0px" y="0px" viewBox="0 0 80 80" style="enable-background:new 0 0 80 80;" xml:space="preserve" width="80px" height="80px">
<g>
	<path style="fill:#8BB7F0;" d="M49.333,75.5c-2.665,0-4.833-2.168-4.833-4.833V49.333c0-2.665,2.168-4.833,4.833-4.833h21.333   c2.665,0,4.833,2.168,4.833,4.833v21.333c0,2.665-2.168,4.833-4.833,4.833H49.333z"/>
	<path style="fill:#4E7AB5;" d="M70.667,45C73.056,45,75,46.944,75,49.333v21.333C75,73.056,73.056,75,70.667,75H49.333   C46.944,75,45,73.056,45,70.667V49.333C45,46.944,46.944,45,49.333,45H70.667 M70.667,44H49.333C46.388,44,44,46.388,44,49.333   v21.333C44,73.612,46.388,76,49.333,76h21.333C73.612,76,76,73.612,76,70.667V49.333C76,46.388,73.612,44,70.667,44L70.667,44z"/>
</g>
<g>
	<path style="fill:#8BB7F0;" d="M72,5c1.654,0,3,1.346,3,3v24c0,1.654-1.346,3-3,3H48c-1.654,0-3-1.346-3-3V8c0-1.654,1.346-3,3-3   H72 M72,4H48c-2.209,0-4,1.791-4,4v24c0,2.209,1.791,4,4,4h24c2.209,0,4-1.791,4-4V8C76,5.791,74.209,4,72,4L72,4z"/>
</g>
<g>
	<path style="fill:#DCD5F2;" d="M9.333,75.5c-2.665,0-4.833-2.168-4.833-4.833V49.333c0-2.665,2.168-4.833,4.833-4.833h21.333   c2.665,0,4.833,2.168,4.833,4.833v21.333c0,2.665-2.168,4.833-4.833,4.833H9.333z"/>
	<path style="fill:#8B75A1;" d="M30.667,45C33.056,45,35,46.944,35,49.333v21.333C35,73.056,33.056,75,30.667,75H9.333   C6.944,75,5,73.056,5,70.667V49.333C5,46.944,6.944,45,9.333,45H30.667 M30.667,44H9.333C6.388,44,4,46.388,4,49.333v21.333   C4,73.612,6.388,76,9.333,76h21.333C33.612,76,36,73.612,36,70.667V49.333C36,46.388,33.612,44,30.667,44L30.667,44z"/>
</g>
<g>
	<circle style="fill:#8B75A1;" cx="20" cy="60" r="2"/>
	<circle style="fill:#8B75A1;" cx="12" cy="68" r="2"/>
	<circle style="fill:#8B75A1;" cx="28" cy="68" r="2"/>
	<circle style="fill:#8B75A1;" cx="12" cy="52" r="2"/>
	<circle style="fill:#8B75A1;" cx="28" cy="52" r="2"/>
</g>
<g>
	<path style="fill:#DCD5F2;" d="M8,35.5c-1.93,0-3.5-1.57-3.5-3.5V8c0-1.93,1.57-3.5,3.5-3.5h24c1.93,0,3.5,1.57,3.5,3.5v24   c0,1.93-1.57,3.5-3.5,3.5H8z"/>
	<path style="fill:#8B75A1;" d="M32,5c1.654,0,3,1.346,3,3v24c0,1.654-1.346,3-3,3H8c-1.654,0-3-1.346-3-3V8c0-1.654,1.346-3,3-3H32    M32,4H8C5.791,4,4,5.791,4,8v24c0,2.209,1.791,4,4,4h24c2.209,0,4-1.791,4-4V8C36,5.791,34.209,4,32,4L32,4z"/>
</g>
<line style="fill:none;stroke:#4E7AB5;stroke-miterlimit:10;" x1="73.333" y1="46.667" x2="46.667" y2="73.333"/>
<line style="fill:none;stroke:#4E7AB5;stroke-miterlimit:10;" x1="67.111" y1="45.333" x2="45.333" y2="66.832"/>
<line style="fill:none;stroke:#4E7AB5;stroke-miterlimit:10;" x1="58.667" y1="45.333" x2="44.959" y2="59.041"/>
<line style="fill:none;stroke:#4E7AB5;stroke-miterlimit:10;" x1="50.667" y1="45.333" x2="45.333" y2="50.667"/>
<line style="fill:none;stroke:#4E7AB5;stroke-miterlimit:10;" x1="52.889" y1="74.667" x2="74.667" y2="53.168"/>
<line style="fill:none;stroke:#4E7AB5;stroke-miterlimit:10;" x1="61.333" y1="74.667" x2="75.041" y2="60.959"/>
<line style="fill:none;stroke:#4E7AB5;stroke-miterlimit:10;" x1="69.333" y1="74.667" x2="74.667" y2="69.333"/>
</svg>
