<svg version="1.1" id="Layer_1" xmlns="http://www.w3.org/2000/svg" xmlns:xlink="http://www.w3.org/1999/xlink" x="0px" y="0px" viewBox="0 0 80 80" style="enable-background:new 0 0 80 80;" xml:space="preserve" width="50" height="50">
<g>
	<path style="fill:#8BB7F0;" d="M2.508,61.5c0.288-9.419,8.697-17,18.992-17h13c10.295,0,18.704,7.581,18.992,17H2.508z"/>
	<g>
		<path style="fill:#4E7AB5;" d="M34.5,45c9.835,0,17.903,7.09,18.468,16H3.031c0.565-8.91,8.633-16,18.468-16H34.5 M34.5,44h-13&#10;&#9;&#9;&#9;C10.73,44,2,52.059,2,62h52C54,52.059,45.269,44,34.5,44L34.5,44z"/>
	</g>
</g>
<g>
	<path style="fill:#DEB974;" d="M28,49.5c-5.191,0-7.237-4.591-7.5-5.239v-9.105h15v9.107C35.23,44.944,33.235,49.5,28,49.5z"/>
	<g>
		<path style="fill:#967A44;" d="M35,35.655v8.507C34.65,44.984,32.699,49,28,49c-4.727,0-6.648-3.994-7-4.836v-8.509H35 M36,34.655&#10;&#9;&#9;&#9;H20v9.699c0,0,2.027,5.646,8,5.646c5.973,0,8-5.646,8-5.646V34.655L36,34.655z"/>
	</g>
</g>
<g>
	<g>
		<path style="fill:#DEB974;" d="M38.714,32.071c-2.087,0-3.786-1.698-3.786-3.785c0-2.088,1.698-3.786,3.786-3.786&#10;&#9;&#9;&#9;c2.689,0,3.786,0.683,3.786,2.357C42.5,28.916,40.804,32.071,38.714,32.071z M17.286,32.071c-2.09,0-3.786-3.155-3.786-5.214&#10;&#9;&#9;&#9;c0-1.675,1.097-2.357,3.786-2.357c2.087,0,3.786,1.698,3.786,3.786C21.071,30.373,19.373,32.071,17.286,32.071z"/>
	</g>
	<g>
		<path style="fill:#967A44;" d="M38.714,25C41.749,25,42,25.878,42,26.857c0,1.972-1.656,4.714-3.286,4.714&#10;&#9;&#9;&#9;c-1.812,0-3.286-1.474-3.286-3.286C35.428,26.474,36.902,25,38.714,25 M17.286,25c1.812,0,3.286,1.474,3.286,3.286&#10;&#9;&#9;&#9;c0,1.812-1.474,3.286-3.286,3.286c-1.63,0-3.286-2.743-3.286-4.714C14,25.878,14.251,25,17.286,25 M38.714,24&#10;&#9;&#9;&#9;c-2.367,0-4.286,1.919-4.286,4.286c0,2.367,1.919,4.286,4.286,4.286S43,29.224,43,26.857S41.081,24,38.714,24L38.714,24z&#10;&#9;&#9;&#9; M17.286,24C14.919,24,13,24.49,13,26.857s1.919,5.714,4.286,5.714s4.286-1.919,4.286-4.286C21.571,25.919,19.653,24,17.286,24&#10;&#9;&#9;&#9;L17.286,24z"/>
	</g>
</g>
<g>
	<g>
		<path style="fill:#F5CE85;" d="M28,43.5c-1.174,0-2.27-0.479-3.085-1.351l-0.092-0.099l-0.129-0.038&#10;&#9;&#9;&#9;C19.869,40.565,16.5,36.037,16.5,31V17.053c0-2.878,2.341-5.219,5.219-5.219h12.562c2.878,0,5.219,2.341,5.219,5.219V31&#10;&#9;&#9;&#9;c0,5.037-3.37,9.566-8.194,11.013l-0.129,0.038l-0.092,0.099C30.27,43.021,29.174,43.5,28,43.5z"/>
	</g>
	<g>
		<path style="fill:#967A44;" d="M34.281,12.333c2.602,0,4.719,2.117,4.719,4.719V31c0,4.818-3.223,9.15-7.837,10.533l-0.258,0.078&#10;&#9;&#9;&#9;l-0.184,0.197C30,42.577,29.034,43,28,43c-1.034,0-2-0.423-2.72-1.192l-0.184-0.197l-0.258-0.078C20.223,40.15,17,35.818,17,31&#10;&#9;&#9;&#9;V17.052c0-2.602,2.117-4.719,4.719-4.719H34.281 M34.281,11.333H21.719c-3.159,0-5.719,2.56-5.719,5.719V31&#10;&#9;&#9;&#9;c0,5.427,3.605,10.008,8.55,11.491C25.414,43.415,26.635,44,28,44s2.585-0.585,3.45-1.509C36.395,41.008,40,36.428,40,31V17.052&#10;&#9;&#9;&#9;C40,13.894,37.439,11.333,34.281,11.333L34.281,11.333z"/>
	</g>
</g>
<g>
	<path style="fill:#A6714E;" d="M39.5,27.5v-5.944c0-5.945-4.043-7.516-4.215-7.58l-0.301-0.111l-0.227,0.227&#10;&#9;&#9;c-0.052,0.053-5.249,5.187-11.312,5.187c-0.483,0-0.956-0.016-1.412-0.031c-0.436-0.015-0.856-0.028-1.256-0.028&#10;&#9;&#9;c-2.069,0-4.276,0.317-4.276,4.115V27.5h-0.209c-0.579-1.052-2.791-5.391-2.791-10.253C13.5,8.288,19.191,2.5,28,2.5&#10;&#9;&#9;c5.735,0,8.419,5.014,8.445,5.064l0.119,0.228l0.254,0.036C41.514,8.502,42.5,13.731,42.5,18c0,4.419-2.202,8.5-2.783,9.5H39.5z"/>
	<g>
		<path style="fill:#7A4F34;" d="M28,3c5.401,0,7.9,4.603,8.002,4.796l0.237,0.454l0.507,0.073C40.233,8.823,42,12.078,42,18&#10;&#9;&#9;&#9;c0,3.147-1.161,6.137-2,7.885v-4.33c0-6.289-4.355-7.979-4.541-8.048l-0.603-0.224l-0.454,0.455&#10;&#9;&#9;&#9;c-0.05,0.05-5.09,5.039-10.958,5.039c-0.477,0-0.945-0.016-1.395-0.031c-0.442-0.015-0.868-0.029-1.274-0.029&#10;&#9;&#9;&#9;c-2.361,0-4.775,0.548-4.775,4.616v2.453c-0.842-1.869-2-5.072-2-8.54C14,8.592,19.495,3,28,3 M28,2c-9.528,0-15,6.519-15,15.247&#10;&#9;&#9;&#9;C13,23.028,16,28,16,28h1c0,0,0-3.076,0-4.667c0-3.184,1.574-3.616,3.775-3.616c0.819,0,1.725,0.06,2.669,0.06&#10;&#9;&#9;&#9;c6.352,0,11.667-5.333,11.667-5.333S39,15.89,39,21.556C39,23.305,39,28,39,28h1c0,0,3-4.732,3-10&#10;&#9;&#9;&#9;c0-6.296-2.027-10.082-6.111-10.667C36.889,7.333,34.105,2,28,2L28,2z"/>
	</g>
</g>
<g>
	<path style="fill:#C2E8FF;" d="M18.506,77.5c0.273-11.625,10.034-21,21.994-21h15c11.96,0,21.721,9.375,21.994,21H18.506z"/>
	<g>
		<path style="fill:#7496C4;" d="M55.5,57c11.512,0,20.94,8.883,21.476,20H19.024C19.56,65.883,28.988,57,40.5,57H55.5 M55.5,56h-15&#10;&#9;&#9;&#9;C28.073,56,18,65.85,18,78h60C78,65.85,67.926,56,55.5,56L55.5,56z"/>
	</g>
</g>
<g>
	<path style="fill:#FFDEA3;" d="M48,63.5c-6.624,0-9.203-5.908-9.5-6.65v-11.53h19v11.532C57.193,57.641,54.684,63.5,48,63.5z"/>
	<g>
		<path style="fill:#967A44;" d="M57,45.819v10.936C56.593,57.749,54.151,63,48,63c-6.155,0-8.596-5.257-9-6.245V45.819H57&#10;&#9;&#9;&#9; M58,44.819H38v12.124c0,0,2.534,7.057,10,7.057s10-7.057,10-7.057V44.819L58,44.819z"/>
	</g>
</g>
<g>
	<g>
		<path style="fill:#FFDEA3;" d="M60.857,41.786c-2.56,0-4.643-2.083-4.643-4.644c0-2.56,2.083-4.643,4.643-4.643&#10;&#9;&#9;&#9;c3.298,0,4.643,0.849,4.643,2.929C65.5,37.939,63.42,41.786,60.857,41.786z M35.143,41.786c-2.562,0-4.643-3.847-4.643-6.357&#10;&#9;&#9;&#9;c0-2.08,1.345-2.929,4.643-2.929c2.56,0,4.643,2.083,4.643,4.643C39.786,39.703,37.703,41.786,35.143,41.786z"/>
	</g>
	<g>
		<path style="fill:#967A44;" d="M60.857,33C64.307,33,65,33.929,65,35.429c0,2.503-2.048,5.857-4.143,5.857&#10;&#9;&#9;&#9;c-2.284,0-4.143-1.859-4.143-4.143S58.573,33,60.857,33 M35.143,33c2.284,0,4.143,1.859,4.143,4.143s-1.858,4.143-4.143,4.143&#10;&#9;&#9;&#9;c-2.095,0-4.143-3.354-4.143-5.857C31,33.929,31.693,33,35.143,33 M60.857,32c-2.84,0-5.143,2.303-5.143,5.143&#10;&#9;&#9;&#9;s2.303,5.143,5.143,5.143c2.84,0,5.143-4.017,5.143-6.857S63.697,32,60.857,32L60.857,32z M35.143,32&#10;&#9;&#9;&#9;C32.302,32,30,32.588,30,35.429s2.303,6.857,5.143,6.857c2.84,0,5.143-2.303,5.143-5.143S37.983,32,35.143,32L35.143,32z"/>
	</g>
</g>
<g>
	<g>
		<path style="fill:#FFDEA3;" d="M48,55.5c-1.3,0-2.535-0.498-3.478-1.402l-0.09-0.087l-0.12-0.034&#10;&#9;&#9;&#9;C38.535,52.338,34.5,47.002,34.5,41V24.728c0-3.403,2.769-6.172,6.172-6.172h14.656c3.403,0,6.172,2.769,6.172,6.172V41&#10;&#9;&#9;&#9;c0,6.002-4.035,11.339-9.813,12.977l-0.12,0.034l-0.09,0.087C50.535,55.002,49.3,55.5,48,55.5z"/>
	</g>
	<g>
		<path style="fill:#967A44;" d="M55.328,19.056c3.128,0,5.672,2.545,5.672,5.672V41c0,5.779-3.886,10.918-9.449,12.496l-0.24,0.068&#10;&#9;&#9;&#9;l-0.18,0.173C50.282,54.551,49.17,55,48,55s-2.282-0.449-3.131-1.264l-0.18-0.173l-0.24-0.068C38.886,51.918,35,46.779,35,41&#10;&#9;&#9;&#9;V24.728c0-3.128,2.545-5.672,5.672-5.672H55.328 M55.328,18.056H40.672c-3.685,0-6.672,2.987-6.672,6.672V41&#10;&#9;&#9;&#9;c0,6.405,4.306,11.793,10.177,13.458C45.169,55.411,46.515,56,48,56s2.83-0.589,3.823-1.542C57.694,52.793,62,47.405,62,41V24.728&#10;&#9;&#9;&#9;C62,21.043,59.013,18.056,55.328,18.056L55.328,18.056z"/>
	</g>
</g>
<g>
	<path style="fill:#F5CE85;" d="M61.5,37.5V30c0-6.66-5.292-8.458-5.345-8.476l-0.295-0.096l-0.217,0.222&#10;&#9;&#9;C55.585,21.709,49.845,27.5,43,27.5c-0.534,0-1.07-0.018-1.6-0.034c-0.524-0.017-1.041-0.033-1.54-0.033&#10;&#9;&#9;c-2.784,0-5.36,0.554-5.36,4.567v5.5h-0.217c-0.701-1.192-3.783-6.755-3.783-12.348C30.5,15.348,37.696,8.5,48,8.5&#10;&#9;&#9;c6.49,0,9.527,5.674,9.557,5.731l0.119,0.228l0.254,0.036C63.094,15.235,65.5,18.891,65.5,26c0,5.077-3.073,10.358-3.776,11.5H61.5&#10;&#9;&#9;z"/>
	<g>
		<path style="fill:#967A44;" d="M48,9c6.155,0,8.997,5.242,9.114,5.463l0.237,0.454l0.507,0.073C60.924,15.429,65,17.049,65,26&#10;&#9;&#9;&#9;c0,3.895-1.871,7.936-3,10.018V30c0-3.644-1.526-5.878-2.806-7.111c-1.4-1.347-2.824-1.821-2.884-1.84l-0.591-0.192l-0.434,0.445&#10;&#9;&#9;&#9;C55.229,21.359,49.647,27,43,27c-0.528,0-1.059-0.017-1.583-0.034c-0.53-0.017-1.051-0.033-1.555-0.033&#10;&#9;&#9;&#9;c-1.754,0-5.862,0-5.862,5.068v3.941c-1.133-2.207-3-6.498-3-10.789C31,15.642,37.991,9,48,9 M48,8c-10.719,0-18,7.333-18,17.152&#10;&#9;&#9;&#9;C30,31.656,34,38,34,38h1c0,0,0-4.211,0-6c0-3.582,2.17-4.068,4.862-4.068C40.864,27.932,41.938,28,43,28c7.146,0,13-6,13-6&#10;&#9;&#9;&#9;s5,1.626,5,8c0,1.968,0,8,0,8h1c0,0,4-6.073,4-12c0-8.322-3.405-11.342-8-12C58,14,54.868,8,48,8L48,8z"/>
	</g>
</g>
</svg>